<svg id="SvgjsSvg1001" width="288" height="288" xmlns="http://www.w3.org/2000/svg" version="1.1" xmlns:xlink="http://www.w3.org/1999/xlink" xmlns:svgjs="http://svgjs.com/svgjs"><defs id="SvgjsDefs1002"></defs><g id="SvgjsG1008"><svg xmlns="http://www.w3.org/2000/svg" fill="#7289da" aria-label="Discord" viewBox="0 0 512 512" width="288" height="288"><rect width="512" height="512" rx="15%" fill="#5b73c7" class="color000 svgShape"></rect><path fill="#ffffff" d="m346 392-21-25c41-11 57-39 57-39-52 49-194 51-249 0 0 0 14 26 56 39l-23 25c-70-1-97-48-97-48 0-104 46-187 46-187 47-33 90-33 90-33l3 4c-58 16-83 42-83 42 68-46 208-42 263 0 1-1-33-28-86-42l5-4s43 0 90 33c0 0 46 83 46 187 0 0-27 47-97 48z" class="colorfff svgShape"></path><ellipse cx="196" cy="279" rx="33" ry="35" fill="#5b73c7" class="color000 svgShape"></ellipse><ellipse cx="312" cy="279" rx="33" ry="35" fill="#5b73c7" class="color000 svgShape"></ellipse></svg></g></svg>